<svg width="57" height="47" viewBox="0 0 57 47" fill="none" xmlns="http://www.w3.org/2000/svg">
<path d="M27.9714 26.9071L36.0898 23.2926C39.926 21.5846 42.1342 17.1807 40.6047 13.2651C40.565 13.1759 40.5747 12.9577 40.4953 12.7793C39.5817 10.7274 37.8952 9.34032 35.872 8.63764C35.9703 7.41797 35.7216 6.13903 35.2052 4.97926C35.0861 4.71162 35.0066 4.53319 34.8875 4.26555C32.8624 0.67747 28.2409 -0.578772 24.494 1.08948L17.803 4.06851C17 4.426 16.6933 5.41775 17.0111 6.13145L25.9084 26.1153C26.2659 26.9182 27.1685 27.2646 27.9714 26.9071ZM23.5958 7.47565L27.1644 5.88683C28.3241 5.37047 29.7424 5.91489 30.2588 7.07467C30.8149 8.32366 30.2307 9.65271 29.071 10.1691L25.5024 11.7579L23.5958 7.47565ZM27.409 16.0401L32.4049 13.8158C33.5647 13.2994 34.983 13.8439 35.4994 15.0036C36.0554 16.2526 35.4713 17.5817 34.3115 18.098L29.3156 20.3224L27.409 16.0401ZM8.27856 10.7677C7.31612 9.80653 5.84836 9.39104 4.59937 9.94713L2.36904 10.9401C1.12005 11.4962 0.44669 12.865 0.516987 14.2234L2.91091 35.9268C2.99036 36.1052 3.03008 36.1945 3.10952 36.3729C3.42728 37.0866 4.32982 37.433 5.13274 37.0756L7.27386 36.1223C7.98757 35.8045 8.36397 35.2093 8.26435 34.5054L7.86526 30.7279L15.6268 27.2722L18.167 30.0964C18.6235 30.6415 19.3177 30.76 20.0314 30.4423L22.2617 29.4493C22.9754 29.1315 23.4111 28.1892 23.0536 27.3863C23.0139 27.2971 22.8849 27.2476 22.8055 27.0692L8.27856 10.7677ZM7.19663 24.1841L6.54756 17.204L11.2112 22.3967L7.19663 24.1841ZM55.4803 16.9042L49.6783 14.6771C49.2915 14.5286 48.8552 14.509 48.4091 14.7076C48.0523 14.8665 47.7749 15.2038 47.6264 15.5906L40.1529 35.0596L32.9724 32.3772C32.5856 32.2287 32.1493 32.2092 31.7924 32.3681C31.3463 32.5667 31.0689 32.904 31.0097 33.2511L28.6933 39.0928C28.5448 39.4796 28.6145 39.8762 28.7733 40.233C28.9719 40.6791 29.22 40.9962 29.6068 41.1447L44.0474 46.6879C44.4342 46.8364 44.8705 46.856 45.3166 46.6574C45.6734 46.4985 45.9509 46.1612 46.0993 45.7744L56.3939 18.9561C56.5424 18.5693 56.5619 18.1331 56.3633 17.687C56.2044 17.3301 55.8671 17.0527 55.4803 16.9042Z" fill="#03598E"/>
</svg>
