<svg width="54" height="56" viewBox="0 0 54 56" fill="none" xmlns="http://www.w3.org/2000/svg">
<path d="M24.9119 14.3638L19.3679 2.29504L1.43515 10.0336C0.179851 10.5753 -0.26838 11.9383 0.261558 13.092L19.1763 54.2679C19.747 55.5103 21.0512 56.0108 22.3065 55.4691L52.4336 42.4683C53.5993 41.9653 54.1779 40.6523 53.6072 39.4099L40.2365 10.3028L28.0422 15.565C26.7869 16.1067 25.4826 15.6062 24.9119 14.3638ZM40.3684 30.2363L35.6741 42.47C35.291 43.2733 34.3047 43.6989 33.4325 43.4373L20.9113 38.6326C19.6071 38.1322 19.5009 36.264 20.7562 35.7223L26.6741 33.1686L23.4129 26.0693C23.0868 25.3593 23.3883 24.3786 24.1953 24.0303L27.0645 22.7922C27.7819 22.4826 28.8253 22.883 29.1514 23.5929L32.4126 30.6922L38.2407 28.1772C39.496 27.6355 40.8574 28.962 40.3684 30.2363ZM37.3668 5.6929L24.5848 0.788134C23.9734 0.626632 23.3132 0.592564 22.7752 0.82472L22.2372 1.05688L27.455 12.4158L38.932 7.4631L38.6874 6.93065C38.4428 6.3982 37.9293 5.98183 37.3668 5.6929Z" fill="#03598E"/>
</svg>
