<svg width="59" height="56" viewBox="0 0 59 56" fill="none" xmlns="http://www.w3.org/2000/svg">
<path d="M36.1747 39.9233C35.6604 39.507 35.171 39.6112 34.9915 39.6884C34.7224 39.8042 34.3147 40.0858 34.25 40.645L34.276 42.3342C34.1385 43.6686 32.4828 44.2745 31.503 43.3145L27.9832 39.4086L28.3043 42.6713C28.5017 44.4992 27.516 46.0923 25.8115 46.8255L24.735 47.2885C23.9276 47.6358 23.0136 47.2851 22.6457 46.4869C22.3187 45.7774 22.6197 44.7977 23.4271 44.4504L24.5036 43.9873C24.9521 43.7944 25.1884 43.3739 25.2043 42.942L24.5711 37.3693C24.4315 36.3667 24.9937 35.4872 25.9805 35.0627C26.8776 34.6768 27.9302 34.8617 28.608 35.6328L31.5805 38.8177C32.7208 36.6268 36.0161 35.8469 38.0735 37.5125C38.4164 37.7901 38.857 37.8131 39.2158 37.6587L35.8643 30.386L42.1564 14.1827L40.2354 10.0142L28.035 15.2623C26.7791 15.8025 25.4733 15.3015 24.9011 14.0598L19.3426 1.99773L1.40086 9.71553C0.144939 10.2558 -0.30256 11.6173 0.22877 12.7703L19.1932 53.9233C19.7654 55.165 21.0712 55.666 22.3271 55.1258L52.4692 42.1599C53.6354 41.6582 54.2135 40.3468 53.6413 39.1052L52.0064 35.5575L40.5237 40.4969C38.9987 41.1529 37.3749 40.8949 36.1747 39.9233ZM38.6823 6.64391C38.4371 6.11175 37.9227 5.69537 37.3595 5.40627L24.5627 0.496176C23.9506 0.334354 23.2898 0.299812 22.7515 0.531346L22.2133 0.76288L27.4448 12.1154L38.9275 7.17606L38.6823 6.64391ZM39.2664 30.3041L42.0865 36.4239L48.1867 33.7998L56.0983 13.1803L47.2188 9.77332L39.2664 30.3041ZM57.0688 3.62336L52.8902 2.02007C51.5844 1.51904 50.1491 2.13646 49.6607 3.40927L48.3421 6.84585L57.2215 10.2529L58.5401 6.81627C59.0285 5.54346 58.3746 4.12439 57.0688 3.62336Z" fill="#03598E"/>
</svg>
