<svg width="62" height="58" viewBox="0 0 62 58" fill="none" xmlns="http://www.w3.org/2000/svg">
<path d="M40.3298 1.18988L3.011 17.2429C0.588863 18.2848 -0.395844 21.0464 0.666816 23.3524L15.0536 54.572C16.1571 56.9666 18.8993 58.0188 21.3214 56.9769L58.6402 40.9239C60.9726 39.9206 62.0879 37.2091 60.9844 34.8144L46.5976 3.59482C45.535 1.28883 42.6622 0.186569 40.3298 1.18988ZM56.1401 36.8982L19.8979 52.4881C19.539 52.6425 19.2779 52.5423 19.1144 52.1875L5.21806 22.0323C5.09544 21.7662 5.15225 21.4229 5.51108 21.2686L41.7534 5.67863C42.0225 5.56286 42.4142 5.71317 42.5368 5.97925L56.4332 36.1345C56.5966 36.4893 56.4093 36.7824 56.1401 36.8982ZM48.6122 30.3593C48.367 29.8271 47.5835 29.5265 47.0452 29.758L29.1035 37.4758C28.4756 37.746 28.2722 38.4711 28.5175 39.0032L29.4984 41.1318C29.7845 41.7527 30.4374 42.0032 31.0653 41.7331L49.0071 34.0153C49.5453 33.7837 49.8792 33.1087 49.5931 32.4879L48.6122 30.3593ZM44.6885 21.8448C44.4433 21.3127 43.6598 21.0121 43.1216 21.2436L25.1798 28.9614C24.5519 29.2315 24.3486 29.9566 24.5938 30.4888L25.5747 32.6174C25.8608 33.2382 26.5137 33.4887 27.1417 33.2186L45.0834 25.5008C45.6216 25.2693 45.9555 24.5943 45.6694 23.9735L44.6885 21.8448ZM40.7649 13.3304C40.5196 12.7983 39.7361 12.4977 39.1979 12.7292L21.2562 20.447C20.6282 20.7171 20.4249 21.4422 20.6701 21.9744L21.651 24.103C21.9371 24.7238 22.5901 24.9743 23.218 24.7042L41.1597 16.9864C41.698 16.7549 42.0319 16.0799 41.7458 15.459L40.7649 13.3304ZM18.6487 24.1192C17.8722 22.434 15.6523 21.5823 13.9479 22.3154C12.1537 23.0872 11.4132 25.2124 12.1897 26.8976C13.0072 28.6714 15.0964 29.473 16.8906 28.7013C18.5951 27.9681 19.4662 25.893 18.6487 24.1192ZM22.5724 32.6336C21.7959 30.9484 19.576 30.0967 17.8715 30.8299C16.0774 31.6017 15.3368 33.7268 16.1134 35.412C16.9308 37.1858 19.0201 37.9875 20.8143 37.2157C22.5187 36.4825 23.3898 34.4074 22.5724 32.6336ZM26.4961 41.148C25.7195 39.4629 23.4997 38.6111 21.7952 39.3443C20.001 40.1161 19.2605 42.2413 20.0371 43.9264C20.8545 45.7003 22.9438 46.5019 24.738 45.7301C26.4424 44.9969 27.3135 42.9218 26.4961 41.148Z" fill="#03598E"/>
</svg>
