<svg width="26" height="27" viewBox="0 0 26 27" fill="none" xmlns="http://www.w3.org/2000/svg">
<path d="M13.11 0.631348C6.09988 0.631348 0.4198 6.30919 0.4198 13.3165V13.3265C0.4198 20.3239 6.09988 26.0017 13.1 26.0017H13.11C20.1101 26.0017 25.7902 20.3239 25.7902 13.3265V13.3165C25.7902 6.30919 20.1101 0.631348 13.11 0.631348ZM17.11 8.50836H15.66C14.52 8.50836 14.3 9.04815 14.3 9.83785V11.5872H17.02L16.67 14.3261H14.31V21.3535H11.48V14.3261H9.09993V11.5872H11.47V9.57795C11.47 7.22884 12.9 5.95933 14.99 5.95933C15.99 5.95933 16.85 6.0293 17.1 6.06928V8.50836H17.11Z" fill="#00314F"/>
</svg>
