<svg width="53" height="56" viewBox="0 0 53 56" fill="none" xmlns="http://www.w3.org/2000/svg">
<path d="M50.9311 28.7977L12.3576 1.07449C9.47587 -0.980359 5.2187 0.744632 4.91183 4.27738L0.4252 50.5233C0.0774628 53.9673 3.77562 56.6275 7.09484 55.1997L50.0653 36.7155C53.3845 35.2877 53.8538 30.9412 50.9311 28.7977ZM22.1672 31.925C24.4099 30.9603 27.1521 32.0124 28.1739 34.2297C29.2365 36.5357 28.1701 39.1199 25.9274 40.0846C23.595 41.088 20.9834 40.0859 19.9207 37.7799C18.8989 35.5626 19.8348 32.9283 22.1672 31.925ZM11.4762 18.9887C11.1004 18.4065 11.3934 17.6428 12.0214 17.3727L17.673 14.9416C18.301 14.6714 19.0845 14.972 19.2809 15.6315L24.2114 27.9637C24.4078 28.6231 24.1228 29.1709 23.5845 29.4024L19.1888 31.2932C18.6505 31.5248 18.0385 31.363 17.6627 30.7807L11.4762 18.9887Z" fill="#03598E"/>
</svg>
