<svg width="26" height="27" viewBox="0 0 26 27" fill="none" xmlns="http://www.w3.org/2000/svg">
<path d="M13.3199 15.4916C14.5184 15.4916 15.49 14.52 15.49 13.3215C15.49 12.123 14.5184 11.1515 13.3199 11.1515C12.1215 11.1515 11.1499 12.123 11.1499 13.3215C11.1499 14.52 12.1215 15.4916 13.3199 15.4916Z" fill="#00314F"/>
<path d="M18.39 9.48147C18.27 9.18147 18.13 8.96147 17.9 8.73146C17.67 8.50146 17.46 8.36146 17.15 8.24146C16.92 8.15146 16.58 8.04145 15.94 8.02145C15.25 7.99145 15.05 7.98145 13.3099 7.98145C11.5699 7.98145 11.3699 7.99145 10.6799 8.02145C10.0499 8.05145 9.69987 8.15146 9.46987 8.24146C9.16987 8.36146 8.94986 8.50146 8.71986 8.73146C8.48986 8.96147 8.34985 9.17147 8.22985 9.48147C8.13985 9.71148 8.02985 10.0515 8.00985 10.6915C7.97985 11.3815 7.96985 11.5815 7.96985 13.3215C7.96985 15.0616 7.97985 15.2616 8.00985 15.9516C8.03985 16.5816 8.13985 16.9316 8.22985 17.1616C8.34985 17.4616 8.48986 17.6816 8.71986 17.9116C8.94986 18.1416 9.15987 18.2816 9.46987 18.4016C9.69987 18.4916 10.0399 18.6016 10.6799 18.6216C11.3699 18.6516 11.5699 18.6616 13.3099 18.6616C15.05 18.6616 15.25 18.6516 15.94 18.6216C16.57 18.5916 16.92 18.4916 17.15 18.4016C17.45 18.2816 17.67 18.1416 17.9 17.9116C18.13 17.6816 18.27 17.4716 18.39 17.1616C18.48 16.9316 18.59 16.5916 18.61 15.9516C18.64 15.2616 18.65 15.0616 18.65 13.3215C18.65 11.5815 18.64 11.3815 18.61 10.6915C18.58 10.0515 18.48 9.71148 18.39 9.48147ZM13.3199 16.6616C11.4699 16.6616 9.97988 15.1616 9.97988 13.3215C9.97988 11.4815 11.4799 9.98148 13.3199 9.98148C15.16 9.98148 16.66 11.4815 16.66 13.3215C16.66 15.1616 15.16 16.6616 13.3199 16.6616ZM16.79 10.6315C16.36 10.6315 16.01 10.2815 16.01 9.85148C16.01 9.42147 16.36 9.07147 16.79 9.07147C17.22 9.07147 17.57 9.42147 17.57 9.85148C17.57 10.2815 17.22 10.6315 16.79 10.6315Z" fill="#00314F"/>
<path d="M13.3199 0.631348C6.30984 0.631348 0.629761 6.31143 0.629761 13.3215V13.3315C0.629761 20.3316 6.30984 26.0117 13.3099 26.0117H13.3199C20.32 26.0117 26.0001 20.3316 26.0001 13.3315V13.3215C26.0001 6.31143 20.32 0.631348 13.3199 0.631348ZM19.78 16.0016C19.75 16.6916 19.64 17.1716 19.48 17.5816C19.31 18.0116 19.09 18.3716 18.73 18.7316C18.37 19.0916 18.01 19.3116 17.58 19.4816C17.17 19.6416 16.69 19.7516 16 19.7816C15.31 19.8116 15.08 19.8216 13.3199 19.8216C11.5599 19.8216 11.3299 19.8116 10.6399 19.7816C9.9499 19.7516 9.46989 19.6416 9.05988 19.4816C8.62988 19.3116 8.26987 19.0916 7.90987 18.7316C7.54986 18.3716 7.32986 18.0116 7.15986 17.5816C6.99985 17.1716 6.88985 16.6916 6.85985 16.0016C6.82985 15.3116 6.81985 15.0816 6.81985 13.3215C6.81985 11.5515 6.82985 11.3315 6.85985 10.6415C6.88985 9.95148 6.99985 9.47148 7.15986 9.06147C7.32986 8.63146 7.54986 8.27146 7.90987 7.91145C8.26987 7.55145 8.62988 7.33145 9.05988 7.16144C9.46989 7.00144 9.9499 6.89144 10.6399 6.86144C11.3299 6.83144 11.5599 6.82144 13.3199 6.82144C15.08 6.82144 15.31 6.83144 16 6.86144C16.69 6.89144 17.17 7.00144 17.58 7.16144C18.01 7.33145 18.37 7.55145 18.73 7.91145C19.09 8.27146 19.31 8.63146 19.48 9.06147C19.64 9.47148 19.75 9.95148 19.78 10.6415C19.81 11.3315 19.82 11.5615 19.82 13.3215C19.82 15.0816 19.82 15.3116 19.78 16.0016Z" fill="#00314F"/>
</svg>
