<svg width="58" height="60" viewBox="0 0 58 60" fill="none" xmlns="http://www.w3.org/2000/svg">
<path d="M52.3222 31.8129L38.6254 1.99584C38.0954 0.842209 36.6607 0.291675 35.4951 0.794679L6.0853 13.4859C1.33311 15.5366 -0.769566 21.0162 1.39095 25.7195L14.4356 54.1167C16.5961 58.82 22.2045 60.9721 26.9567 58.9214L56.3665 46.2302C57.5321 45.7272 58.1108 44.4141 57.5401 43.1718L56.8878 41.7519C56.6025 41.1307 55.9585 40.6643 55.3471 40.5028C54.2465 39.2764 52.4529 35.3718 52.2898 33.8472C52.575 33.2988 52.6483 32.5228 52.3222 31.8129ZM14.417 24.139C14.2947 23.8728 14.3517 23.5292 14.7104 23.3744L33.7191 15.1716C33.9881 15.0555 34.3794 15.2056 34.5017 15.4719L35.317 17.2467C35.4801 17.6017 35.2926 17.8952 35.0236 18.0113L16.0148 26.2141C15.6562 26.3689 15.3953 26.2688 15.2323 25.9138L14.417 24.139ZM17.0259 29.8185C16.9036 29.5522 16.9606 29.2086 17.3193 29.0539L36.3281 20.851C36.5971 20.7349 36.9883 20.8851 37.1106 21.1513L37.9259 22.9261C38.089 23.2811 37.9015 23.5747 37.6325 23.6907L18.6238 31.8936C18.2651 32.0483 18.0043 31.9482 17.8412 31.5933L17.0259 29.8185ZM49.902 42.2145L24.3478 53.2419C22.7338 53.9384 20.9078 53.2377 20.1741 51.6404C19.4811 50.1318 20.1249 48.259 21.7388 47.5625L47.2931 36.5351C47.8475 38.2098 49.0297 40.7833 49.902 42.2145Z" fill="#03598E"/>
</svg>
