<svg width="61" height="61" viewBox="0 0 61 61" fill="none" xmlns="http://www.w3.org/2000/svg">
<path d="M43.9615 11.925L40.61 4.65229C40.1525 3.89265 39.5564 3.29888 38.7729 2.99826L32.8968 0.74363C32.1133 0.443012 31.273 0.485648 30.4248 0.744258L8.71531 10.0828C7.10056 10.7774 6.45771 12.648 7.15253 14.1558L25.463 53.8898C26.1987 55.4862 28.0268 56.1877 29.6415 55.4931L58.3483 43.1446C59.8733 42.4886 60.6468 40.6681 59.9111 39.0716L48.1401 13.5283C47.4453 12.0206 45.4866 11.269 43.9615 11.925ZM37.8545 43.4583C38.2224 44.2565 37.7908 45.1861 37.0731 45.4948L34.2024 46.7297C33.3951 47.077 32.481 46.7262 32.1132 45.928L30.8053 43.0899C30.4783 42.3803 30.7793 41.4007 31.5867 41.0534L34.4573 39.8185C35.175 39.5098 36.2197 39.9106 36.5466 40.6202L37.8545 43.4583ZM32.623 32.1058C32.9908 32.904 32.5592 33.8335 31.8416 34.1422L28.9709 35.3771C28.1635 35.7244 27.2495 35.3737 26.8816 34.5754L25.5737 31.7373C25.2467 31.0278 25.5477 30.0481 26.3551 29.7008L29.2258 28.466C29.9435 28.1573 30.9881 28.5581 31.3151 29.2676L32.623 32.1058ZM49.3372 38.5189C49.7051 39.3172 49.2735 40.2467 48.5558 40.5554L45.6851 41.7903C44.8778 42.1376 43.9637 41.7869 43.5959 40.9886L42.288 38.1505C41.961 37.4409 42.262 36.4613 43.0694 36.114L45.94 34.8791C46.6577 34.5704 47.7024 34.9713 48.0293 35.6808L49.3372 38.5189ZM44.1057 27.1664C44.4735 27.9646 44.0419 28.8941 43.3243 29.2029L40.4536 30.4377C39.6462 30.785 38.7322 30.4343 38.3643 29.6361L37.0564 26.7979C36.7294 26.0884 37.0304 25.1087 37.8378 24.7614L40.7085 23.5266C41.4262 23.2179 42.4708 23.6187 42.7978 24.3282L44.1057 27.1664ZM39.528 17.2329L19.4333 25.8768L14.2018 14.5242L28.5551 8.34999L30.517 12.6072C30.8848 13.4054 31.7989 13.7562 32.6063 13.4089L36.9123 11.5566L39.528 17.2329ZM5.33484 25.1399L2.46417 26.3748C0.849414 27.0694 0.206566 28.94 0.901383 30.4477L13.9803 58.8292C14.716 60.4256 16.5441 61.1271 18.1588 60.4325L21.0295 59.1976C22.5546 58.5416 23.328 56.7211 22.5923 55.1246L9.51341 26.7432C8.81859 25.2354 6.85989 24.4839 5.33484 25.1399Z" fill="#03598E"/>
</svg>
