<svg width="146" height="45" viewBox="0 0 146 45" fill="none" xmlns="http://www.w3.org/2000/svg">
<path fill-rule="evenodd" clip-rule="evenodd" d="M45.2333 8.79398H46.2368V6.20397H47.8484C49.156 6.20397 50.0682 5.30048 50.0682 3.97536C50.0682 2.65024 49.156 1.77687 47.8484 1.77687H45.2333V8.79398ZM46.2368 5.3306V2.62012H47.6964C48.5174 2.62012 49.0648 3.1321 49.0648 3.97536C49.0648 4.81862 48.5174 5.36071 47.6964 5.36071L46.2368 5.3306ZM50.8892 5.24025C50.8892 7.31828 52.5009 8.91444 54.5382 8.91444C56.5756 8.91444 58.1872 7.28816 58.1872 5.24025C58.1872 3.22245 56.606 1.6564 54.5382 1.6564C52.4705 1.6564 50.8588 3.22245 50.8892 5.24025ZM51.8927 5.24025C51.8927 3.70431 53.0482 2.55989 54.5078 2.55989C55.9674 2.55989 57.1229 3.73443 57.1229 5.24025C57.1229 6.8063 55.9674 8.01095 54.5078 8.01095C53.0786 8.01095 51.8927 6.8063 51.8927 5.24025ZM59.1603 5.24025C59.1603 7.28816 60.5895 8.91444 62.8093 8.91444C64.056 8.91444 64.9378 8.40247 65.546 7.80014L64.9986 7.07735C64.4209 7.64956 63.5999 7.98084 62.8093 7.98084C61.1672 7.98084 60.1637 6.68583 60.1637 5.21013C60.1637 3.73443 61.1368 2.52977 62.7788 2.52977C63.5086 2.52977 64.2992 2.83094 64.8162 3.28268L65.3331 2.55989C64.6641 1.89733 63.6607 1.62628 62.7484 1.62628C60.6503 1.6564 59.1603 3.19233 59.1603 5.24025ZM66.1846 5.24025C66.1846 7.28816 67.6137 8.91444 69.8335 8.91444C71.0803 8.91444 71.9621 8.40247 72.5703 7.80014L72.0229 7.07735C71.4452 7.64956 70.6241 7.98084 69.8335 7.98084C68.1915 7.98084 67.188 6.68583 67.188 5.21013C67.188 3.73443 68.1611 2.52977 69.8031 2.52977C70.5329 2.52977 71.3235 2.83094 71.8405 3.28268L72.3574 2.55989C71.6884 1.89733 70.685 1.62628 69.7727 1.62628C67.6746 1.6564 66.1846 3.19233 66.1846 5.24025ZM73.817 8.79398H74.7901L77.9525 4.24641C78.1958 3.85489 78.5303 3.22245 78.5303 3.22245H78.5607C78.5607 3.22245 78.4999 3.85489 78.4999 4.24641V8.79398H79.4729V1.77687H78.4999L75.3982 6.32444C75.155 6.71595 74.7901 7.34839 74.7901 7.34839H74.7597C74.7597 7.34839 74.8205 6.71595 74.8205 6.32444V1.77687H73.817V8.79398ZM84.2774 1.44559C85.068 1.44559 85.7674 0.99384 85.7674 0.180698V0.0301164H85.0072V0.150582C85.0072 0.602327 84.6423 0.813142 84.2774 0.813142C83.9125 0.813142 83.578 0.602327 83.578 0.150582V0H82.7874V0.150582C82.7874 0.99384 83.4868 1.44559 84.2774 1.44559ZM81.3886 8.79398H82.3617L85.5241 4.24641C85.7674 3.85489 86.1323 3.22245 86.1323 3.22245H86.1627C86.1627 3.22245 86.1019 3.85489 86.1019 4.24641V8.79398H87.075V1.77687H86.1019L82.9394 6.32444C82.6962 6.71595 82.3313 7.34839 82.3313 7.34839H82.3009C82.3009 7.34839 82.3617 6.71595 82.3617 6.32444V1.77687H81.3582V8.79398H81.3886ZM88.5041 5.24025C88.5041 7.28816 89.9333 8.91444 92.1531 8.91444C93.3999 8.91444 94.2817 8.40247 94.8899 7.80014L94.3729 7.07735C93.7952 7.64956 92.9741 7.98084 92.1835 7.98084C90.5415 7.98084 89.538 6.68583 89.538 5.21013C89.538 3.73443 90.5111 2.52977 92.1531 2.52977C92.8829 2.52977 93.6735 2.83094 94.2209 3.28268L94.7378 2.55989C94.0688 1.89733 93.0654 1.62628 92.1531 1.62628C90.0246 1.6564 88.5041 3.19233 88.5041 5.24025ZM96.167 8.79398H97.1705V5.57153H98.2348L100.12 8.79398H101.245L99.0254 5.11978L101.093 1.77687H100.029L98.2348 4.72827H97.1705V1.77687H96.167V8.79398ZM102.34 8.79398H103.313L106.475 4.24641C106.719 3.85489 107.084 3.22245 107.084 3.22245H107.114C107.114 3.22245 107.053 3.85489 107.053 4.24641V8.79398H108.026V1.77687H107.053L103.891 6.32444C103.647 6.71595 103.283 7.34839 103.283 7.34839H103.252C103.252 7.34839 103.313 6.71595 103.313 6.32444V1.77687H102.309V8.79398H102.34ZM112.77 1.44559C113.56 1.44559 114.26 0.99384 114.26 0.180698V0.0301164H113.5V0.150582C113.5 0.602327 113.135 0.813142 112.8 0.813142C112.435 0.813142 112.101 0.602327 112.101 0.150582V0H111.28V0.150582C111.28 0.99384 112.01 1.44559 112.77 1.44559ZM109.911 8.79398H110.885L114.047 4.24641C114.29 3.85489 114.625 3.22245 114.625 3.22245H114.655C114.655 3.22245 114.594 3.85489 114.594 4.24641V8.79398H115.567V1.77687H114.594L111.462 6.32444C111.219 6.71595 110.854 7.34839 110.854 7.34839H110.824C110.824 7.34839 110.885 6.71595 110.885 6.32444V1.77687H109.881V8.79398H109.911ZM45.2333 20.7502H46.2368V14.5763H49.156V13.7331H45.2333V20.7502ZM49.4905 17.1964C49.4905 19.2745 51.1021 20.8706 53.1395 20.8706C55.2072 20.8706 56.7884 19.2444 56.7884 17.1964C56.7884 15.1786 55.2072 13.6126 53.1395 13.6126C51.0717 13.6126 49.4601 15.1786 49.4905 17.1964ZM50.4939 17.1964C50.4939 15.6605 51.6495 14.5161 53.109 14.5161C54.5686 14.5161 55.7241 15.6906 55.7241 17.1964C55.7241 18.7625 54.5686 19.9671 53.109 19.9671C51.6799 19.9671 50.4939 18.7625 50.4939 17.1964ZM57.7615 17.1964C57.7615 19.2745 59.1907 20.8706 61.4105 20.8706C62.6572 20.8706 63.539 20.3587 64.1472 19.7563L63.6303 19.0637C63.0525 19.6359 62.2315 19.9671 61.4409 19.9671C59.7988 19.9671 58.7954 18.6721 58.7954 17.1964C58.7954 15.7207 59.7684 14.5161 61.4105 14.5161C62.1403 14.5161 62.9309 14.8173 63.4478 15.269L63.9648 14.5161C63.2958 13.8836 62.2923 13.5825 61.3801 13.5825C59.2515 13.6126 57.7615 15.1485 57.7615 17.1964ZM65.2115 20.4189C65.6068 20.6899 66.0325 20.8706 66.519 20.8706C67.4009 20.8706 67.857 20.178 68.1307 19.4552L70.3809 13.7029H69.347L68.0395 17.2567C67.8874 17.6783 67.7354 18.1602 67.7354 18.1602H67.705C67.705 18.1602 67.5225 17.6783 67.3097 17.2266L65.5764 13.7029H64.4817L67.2792 19.2142C67.0968 19.6961 66.8839 19.9973 66.4886 19.9973C66.1541 19.9973 65.8501 19.7865 65.6676 19.6359L65.2115 20.4189ZM71.8101 19.9069C72.6311 18.642 72.8135 16.7748 72.8135 15.2389V14.5763H75.0333V19.9069H71.8101ZM70.0768 19.9069V22.1656H70.989V20.7803H75.9456V22.1656H76.8274V19.9069H76.0368V13.7331H71.8709V15.1786C71.8709 16.7146 71.7492 18.5517 70.7458 19.9069H70.0768ZM77.4052 20.7502H78.4086L79.108 18.7324H81.7839L82.4833 20.7502H83.5172L80.9629 13.7331H79.8986L77.4052 20.7502ZM79.3817 17.9192L80.1723 15.6906C80.2939 15.3292 80.446 14.6968 80.446 14.6968H80.4764C80.4764 14.6968 80.6284 15.3292 80.7501 15.6906L81.5407 17.9192H79.3817ZM84.6119 20.7502H85.6154V18.1602H87.227C88.5345 18.1602 89.4468 17.2567 89.4468 15.9316C89.4468 14.6064 88.5345 13.7331 87.227 13.7331H84.6119V20.7502ZM85.6154 17.2868V14.5763H87.075C87.896 14.5763 88.4433 15.0883 88.4433 15.9316C88.4433 16.7748 87.896 17.3169 87.075 17.3169L85.6154 17.2868ZM90.2678 17.1964C90.2678 19.2745 91.697 20.8706 93.9168 20.8706C95.1635 20.8706 96.0454 20.3587 96.6535 19.7563L96.1062 19.0637C95.5284 19.6359 94.7074 19.9671 93.9168 19.9671C92.2748 19.9671 91.2713 18.6721 91.2713 17.1964C91.2713 15.7207 92.2443 14.5161 93.8864 14.5161C94.6162 14.5161 95.4068 14.8173 95.9237 15.269L96.4407 14.5161C95.7717 13.8836 94.7682 13.5825 93.856 13.5825C91.7578 13.6126 90.2678 15.1485 90.2678 17.1964ZM99.5727 20.7502H100.546V14.5763H102.978V13.7331H97.1096V14.5763H99.5423V20.7502H99.5727ZM104.104 20.7502H106.658C107.905 20.7502 108.938 20.0876 108.938 18.7625C108.938 17.9795 108.513 17.2868 107.753 17.0459V17.0157C108.3 16.7447 108.634 16.2026 108.634 15.5099C108.634 14.3655 107.783 13.7029 106.567 13.7029H104.073V20.7502H104.104ZM105.107 16.6845V14.5763H106.597C107.266 14.5763 107.661 14.9979 107.661 15.6003C107.661 16.2026 107.266 16.6543 106.627 16.6543L105.107 16.6845ZM105.107 19.9069V17.4976H106.719C107.448 17.4976 107.935 17.9795 107.935 18.7023C107.935 19.4251 107.479 19.9069 106.719 19.9069H105.107ZM110.368 20.7502H114.686V19.9069H111.371V17.6482H113.925V16.8049H111.371V14.6064H114.503V13.7632H110.368V20.7502ZM116.054 20.7502H117.057V17.6783H120.737V20.7502H121.71V13.7331H120.737V16.835H117.057V13.7331H116.054V20.7502ZM123.595 20.7502H124.599V17.6783H128.278V20.7502H129.251V13.7331H128.278V16.835H124.599V13.7331H123.595V20.7502ZM136.762 20.7502H137.735V13.7331H136.762V20.7502ZM131.136 20.7502H133.63C134.877 20.7502 135.728 19.8768 135.728 18.5818C135.728 17.1663 134.816 16.3833 133.569 16.3833H132.109V13.7331H131.106V20.7502H131.136ZM132.14 19.9069V17.2266H133.478C134.268 17.2266 134.755 17.7687 134.755 18.5818C134.755 19.3949 134.268 19.9069 133.478 19.9069H132.14ZM142.509 13.4018C143.3 13.4018 143.999 12.95 143.999 12.1369V11.9863H143.208V12.1068C143.208 12.5585 142.844 12.7693 142.479 12.7693C142.114 12.7693 141.779 12.5585 141.779 12.1068V11.9562H140.989V12.1068C141.019 12.9199 141.718 13.4018 142.509 13.4018ZM139.62 20.7502H140.593L143.756 16.2026C143.999 15.8111 144.334 15.1786 144.334 15.1786H144.364C144.364 15.1786 144.303 15.8111 144.303 16.2026V20.7502H145.276V13.7331H144.303L141.171 18.2806C140.928 18.6721 140.563 19.3046 140.563 19.3046H140.533C140.533 19.3046 140.593 18.6721 140.593 18.2806V13.7029H139.59V20.7502H139.62ZM44.8076 29.1526C44.8076 31.2006 46.2368 32.8268 48.4566 32.8268C49.7033 32.8268 50.5852 32.3149 51.1933 31.7125L50.646 31.0199C50.0682 31.5921 49.2472 31.9233 48.4566 31.9233C46.8146 31.9233 45.8111 30.6283 45.8111 29.1526C45.8111 27.6769 46.7842 26.4723 48.4262 26.4723C49.156 26.4723 49.9466 26.7734 50.4635 27.2252L50.9805 26.4723C50.3115 25.8398 49.308 25.5387 48.3958 25.5387C46.2976 25.5387 44.8076 27.1047 44.8076 29.1526ZM51.8319 29.1526C51.8319 31.2307 53.4435 32.8268 55.4809 32.8268C57.5182 32.8268 59.1299 31.2006 59.1299 29.1526C59.1299 27.1348 57.5486 25.5688 55.4809 25.5688C53.4131 25.5387 51.8319 27.1047 51.8319 29.1526ZM52.8354 29.1526C52.8354 27.6167 53.9909 26.4723 55.4505 26.4723C56.9101 26.4723 58.0656 27.6468 58.0656 29.1526C58.0656 30.7187 56.9101 31.9233 55.4505 31.9233C54.0213 31.9233 52.8354 30.7187 52.8354 29.1526ZM60.5286 32.7064H65.9109V34.0917H66.7927V31.833H65.9717V25.6591H64.9682V31.833H61.5017V25.6591H60.4982V32.7064H60.5286ZM68.1611 32.7064H69.1341L72.2966 28.1588C72.5399 27.7673 72.9048 27.1348 72.9048 27.1348H72.9352C72.9352 27.1348 72.8743 27.7673 72.8743 28.1588V32.7064H73.8474V25.6591H72.8743L69.7119 30.2067C69.4686 30.5982 69.1037 31.2307 69.1037 31.2307H69.0733C69.0733 31.2307 69.1341 30.5982 69.1341 30.2067V25.629H68.1307V32.7064H68.1611ZM74.9421 32.7064H75.9456L76.645 30.6886H79.3209L80.0203 32.7064H81.0541L78.4999 25.6893H77.4356L74.9421 32.7064ZM76.9186 29.8754L77.7092 27.6468C77.8309 27.2854 77.9829 26.653 77.9829 26.653H78.0133C78.0133 26.653 78.1654 27.2854 78.287 27.6468L79.0776 29.8754H76.9186ZM81.3582 31.8932V32.7967C83.3044 32.6763 83.9125 30.7488 83.9125 27.3457V26.5325H86.1019V32.7064H87.1054V25.6591H82.9699V27.3155C82.9699 30.2067 82.5441 31.7125 81.3582 31.8932ZM88.9907 32.7064H91.545C92.7917 32.7064 93.6735 31.833 93.6735 30.538C93.6735 29.1225 92.7613 28.3395 91.5145 28.3395H89.9941V25.6893H88.9907V32.7064ZM89.9637 31.8631V29.1828H91.3321C92.1227 29.1828 92.6092 29.7249 92.6092 30.538C92.6092 31.3511 92.1227 31.8631 91.3321 31.8631H89.9637ZM94.8899 32.7064H95.8933V29.6044H99.5727V32.6763H100.546V25.6591H99.5727V28.7611H95.8933V25.6591H94.8899V32.7064ZM108.057 32.7064H109.03V25.6591H108.057V32.7064ZM102.461 32.7064H104.955C106.202 32.7064 107.053 31.833 107.053 30.538C107.053 29.1225 106.141 28.3395 104.894 28.3395H103.435V25.6893H102.461V32.7064ZM103.435 31.8631V29.1828H104.773C105.563 29.1828 106.05 29.7249 106.05 30.538C106.05 31.3511 105.563 31.8631 104.773 31.8631H103.435ZM113.804 25.358C114.594 25.358 115.294 24.9062 115.294 24.0931V23.9425H114.534V24.063C114.534 24.5147 114.169 24.7255 113.804 24.7255C113.439 24.7255 113.104 24.5147 113.104 24.063V23.9124H112.314V24.063C112.314 24.8761 113.044 25.358 113.804 25.358ZM110.945 32.7064H111.918L115.081 28.1588C115.324 27.7673 115.659 27.1348 115.659 27.1348H115.689C115.689 27.1348 115.628 27.7673 115.628 28.1588V32.7064H116.601V25.6591H115.628L112.496 30.2368C112.253 30.6283 111.888 31.2608 111.888 31.2608H111.858C111.858 31.2608 111.918 30.6283 111.918 30.2368V25.6591H110.915V32.7064H110.945ZM45.5374 44.3313C45.9327 44.6023 46.3584 44.783 46.845 44.783C47.7268 44.783 48.1829 44.0904 48.4566 43.3676L50.7068 37.6153H49.6729L48.3654 41.1691C48.2133 41.5907 48.0613 42.0726 48.0613 42.0726H48.0309C48.0309 42.0726 47.8484 41.5907 47.6356 41.139L45.9023 37.6153H44.8076L47.6052 43.1266C47.4227 43.6085 47.2099 43.9097 46.8146 43.9097C46.4801 43.9097 46.176 43.6988 45.9935 43.5483L45.5374 44.3313ZM51.7407 44.6626H52.7441V41.5606H56.4235V44.6325H57.3966V37.6153H56.4235V40.7173H52.7441V37.6153H51.7407V44.6626ZM59.2819 44.6626H60.255L63.4174 40.115C63.6607 39.7235 63.9952 39.091 63.9952 39.091H64.0256C64.0256 39.091 63.9648 39.7235 63.9648 40.115V44.6626H64.9378V37.6455H63.9648L60.8023 42.193C60.559 42.5845 60.1941 43.217 60.1941 43.217H60.1637C60.1637 43.217 60.2246 42.5845 60.2246 42.193V37.6153H59.2819V44.6626ZM66.8535 44.6626H69.4078C70.6546 44.6626 71.6884 44 71.6884 42.6749C71.6884 41.8919 71.2627 41.1992 70.5025 40.9583V40.9281C71.0499 40.6571 71.3844 40.115 71.3844 39.4223C71.3844 38.2779 70.5329 37.6153 69.3166 37.6153H66.8231V44.6626H66.8535ZM67.857 40.5969V38.4887H69.347C70.016 38.4887 70.4113 38.9103 70.4113 39.5127C70.4113 40.115 70.016 40.5667 69.3774 40.5667L67.857 40.5969ZM67.857 43.7892V41.3799H69.4686C70.1984 41.3799 70.685 41.8617 70.685 42.5845C70.685 43.3073 70.2288 43.7892 69.4686 43.7892H67.857ZM73.1176 44.6626H77.4356V43.8193H74.1211V41.5606H76.6754V40.7173H74.1211V38.5188H77.2531V37.6756H73.1176V44.6626ZM78.8039 44.6626H79.8074V42.0726H81.419C82.7266 42.0726 83.6388 41.1691 83.6388 39.844C83.6388 38.5188 82.7266 37.6455 81.419 37.6455H78.8039V44.6626ZM79.8074 41.1992V38.4887H81.267C82.088 38.4887 82.6354 39.0007 82.6354 39.844C82.6354 40.6872 82.088 41.2293 81.267 41.2293L79.8074 41.1992ZM84.4599 41.1088C84.4599 43.1567 85.889 44.783 88.1088 44.783C89.3556 44.783 90.2374 44.2711 90.8456 43.6687L90.2982 42.9761C89.7205 43.5483 88.8994 43.8795 88.1088 43.8795C86.4668 43.8795 85.4633 42.5845 85.4633 41.1088C85.4633 39.6331 86.4364 38.4285 88.0784 38.4285C88.8082 38.4285 89.5988 38.7296 90.1158 39.1814L90.6327 38.4285C89.9637 37.7659 88.9603 37.4949 88.048 37.4949C85.9499 37.4949 84.4599 39.0609 84.4599 41.1088ZM92.0923 44.6626H93.0654L96.2278 40.115C96.4711 39.7235 96.836 39.091 96.836 39.091H96.8664C96.8664 39.091 96.8056 39.7235 96.8056 40.115V44.6626H97.7786V37.6455H96.8056L93.6431 42.193C93.3999 42.5845 93.035 43.217 93.035 43.217H93.0046C93.0046 43.217 93.0654 42.5845 93.0654 42.193V37.6153H92.0619V44.6626H92.0923ZM101.306 44.6626H102.279V38.4887H104.712V37.6455H98.8429V38.4887H101.276V44.6626H101.306ZM105.837 44.6626H110.155V43.8193H106.84V41.5606H109.395V40.7173H106.84V38.5188H109.972V37.6756H105.837V44.6626ZM113.165 44.6626H114.138V38.4887H116.571V37.6455H110.702V38.4887H113.135V44.6626H113.165Z" fill="white"/>
<path fill-rule="evenodd" clip-rule="evenodd" d="M4.06044 20.6598C3.5435 21.4428 3.08738 22.256 2.81371 23.1294C2.54003 24.0329 2.4184 24.9665 2.35758 25.9001C2.29677 27.2553 2.35758 28.6407 2.4184 29.9959C2.44881 30.5982 2.44881 31.2307 2.44881 31.8631C2.44881 32.9774 2.47922 34.1218 2.47922 35.2361C2.47922 36.3504 2.47922 37.4647 2.50962 38.5791C2.50962 39.0609 2.50962 43.1869 2.50962 44.9637H0.168195C0.168195 43.1266 0.168195 39.1211 0.168195 38.6092C0.168195 37.4949 0.137787 36.3806 0.137787 35.2663C0.137787 34.152 0.137787 33.0075 0.107379 31.8932C0.107379 31.2909 0.107379 30.6886 0.0769707 30.1164C-0.0142538 27.6468 -0.166295 24.8159 0.593909 22.4367C0.958807 21.3224 1.47575 20.3285 2.11432 19.3648C2.81371 18.3409 3.60432 17.588 4.45575 16.6845L4.42534 16.6543C3.51309 15.2991 2.96575 13.7029 2.96575 11.9562C2.96575 7.31827 6.76677 3.55373 11.4496 3.55373C12.7876 3.55373 14.0343 3.85489 15.129 4.39699C15.798 3.28268 16.7102 2.34908 17.7745 1.6564C17.8049 1.62628 17.8353 1.62628 17.8657 1.59617C17.8962 1.56605 17.9266 1.56605 17.957 1.53593C19.2645 0.752908 20.7849 0.301163 22.427 0.301163C27.1098 0.301163 30.9108 4.06571 30.9108 8.70363C30.9108 11.2334 29.7857 13.5222 27.9613 15.0582L28.1437 15.2389C29.4817 16.5339 30.6676 17.6181 31.7015 19.1841C32.34 20.1478 32.8874 21.1417 33.2219 22.256C33.9821 24.6352 33.83 27.4661 33.7388 29.9357C33.7084 30.538 33.7084 31.1403 33.7084 31.7125C33.7084 32.8268 33.678 33.9713 33.678 35.0856C33.678 36.1999 33.678 37.3142 33.6476 38.4285C33.6476 39.0609 33.6476 44 33.6172 44.6324L33.5868 44.9938H31.2453L31.2757 44.512C31.3062 43.9096 31.3062 39.0007 31.3062 38.3984C31.3062 37.284 31.3366 36.1697 31.3366 35.0554C31.3366 33.9411 31.3366 32.7967 31.367 31.6824C31.367 31.0801 31.367 30.4476 31.3974 29.8152C31.4582 28.46 31.519 27.0746 31.4582 25.7194C31.4278 24.7858 31.3062 23.8522 31.0021 22.9487C30.7284 22.0452 30.2723 21.2621 29.7553 20.4791C28.8127 19.0637 27.718 18.0698 26.5017 16.9254C26.3192 16.7447 26.1368 16.564 25.9543 16.3833C24.89 16.8652 23.6737 17.1362 22.427 17.1362C21.089 17.1362 19.8423 16.835 18.7476 16.2929C18.4131 16.835 18.0178 17.3771 17.5617 17.8289C20.1768 18.7625 22.0317 21.232 22.0317 24.1232C22.0317 26.0506 21.2106 27.7974 19.9031 29.0021C20.5417 29.6646 21.1498 30.3573 21.6972 31.2005C21.8492 31.4114 22.0013 31.6523 22.1229 31.8932C22.1533 31.9233 22.1533 31.9535 22.1837 31.9836C22.6094 32.7064 22.9743 33.4593 23.2176 34.2724C23.248 34.3628 23.2784 34.423 23.2784 34.5133C23.5521 35.447 23.6129 36.23 23.6433 37.1937C23.6433 37.4647 23.6433 37.7358 23.6433 38.037L23.5217 44.9637H21.1498C21.1498 42.705 21.2715 40.2053 21.2106 37.9767C21.1802 36.3504 20.9674 34.5435 19.7206 32.5558C19.7206 32.5257 19.6902 32.5257 19.6902 32.4956C19.1429 31.6523 18.5043 30.9596 17.8353 30.2971C17.0447 30.6283 16.1629 30.809 15.2202 30.809C14.4296 30.809 13.6694 30.6886 12.97 30.4175C12.7268 30.6585 12.5139 30.8994 12.2706 31.1704C11.7537 31.7426 11.3584 32.2847 10.9935 32.9473C9.99003 34.7844 9.80758 36.4408 9.74677 37.9767C9.68595 40.2053 9.80758 42.705 9.80758 44.9637H7.43575L7.31411 38.037C7.28371 36.8925 7.31411 36.0493 7.55738 35.0554C7.83105 33.911 8.25677 32.9172 8.83452 31.8932C8.98656 31.6523 9.1386 31.3812 9.32105 31.1403C9.80758 30.4175 10.2941 29.8152 10.8415 29.243C9.41228 28.0082 8.46962 26.1711 8.46962 24.0931C8.46962 22.6475 8.95615 21.2923 9.74677 20.178C8.34799 19.9069 7.07085 19.2745 6.00656 18.4011C5.30717 19.1239 4.60779 19.8467 4.06044 20.6598ZM21.6972 14.7269C21.9404 14.757 22.1837 14.757 22.3966 14.757C23.6433 14.757 24.8292 14.3655 25.8023 13.7331C27.4139 12.6489 28.5086 10.8118 28.5086 8.73374C28.5086 5.39083 25.7719 2.68036 22.3966 2.68036C21.2106 2.68036 20.0855 3.01164 19.1429 3.61396C19.1125 3.61396 19.1125 3.64408 19.0821 3.64408C18.2611 4.15606 17.5921 4.87885 17.1055 5.72211C18.8388 7.25804 19.9031 9.48665 19.9031 11.9562C19.9031 12.7091 19.8119 13.4018 19.6294 14.0945C20.268 14.4257 20.9674 14.6365 21.6972 14.7269ZM11.4496 5.90281C14.8249 5.90281 17.5617 8.61328 17.5617 11.9562C17.5617 14.5462 15.9196 16.7447 13.6086 17.6181C13.3653 17.6783 13.1525 17.7385 12.9092 17.8289C12.4531 17.9493 11.9666 18.0096 11.4496 18.0096C8.07432 18.0096 5.33758 15.2991 5.33758 11.9562C5.33758 8.61328 8.07432 5.90281 11.4496 5.90281ZM15.2506 19.6961C12.7876 19.6961 10.7806 21.6838 10.7806 24.1232C10.7806 26.5626 12.7876 28.5503 15.2506 28.5503C17.7137 28.5503 19.7206 26.5626 19.7206 24.1232C19.6902 21.6537 17.7137 19.6961 15.2506 19.6961Z" fill="white"/>
</svg>
