<svg width="62" height="53" viewBox="0 0 62 53" fill="none" xmlns="http://www.w3.org/2000/svg">
<path d="M40.4214 28.9898L43.9183 27.4807C44.4562 27.2486 44.8393 26.4453 44.5947 25.9128L39.0915 13.9328C38.8469 13.4003 37.9339 13.05 37.396 13.2821L33.8991 14.7912C33.3611 15.0233 33.1084 15.8767 33.353 16.4091L38.8562 28.3892C39.1008 28.9216 39.8834 29.2219 40.4214 28.9898ZM49.0291 25.2753L52.526 23.7663C53.064 23.5341 53.447 22.7308 53.2025 22.1984L43.7859 1.69913C43.5413 1.16668 42.6283 0.816342 42.0903 1.0485L38.5934 2.55751C38.0554 2.78967 37.8028 3.64301 38.0474 4.17546L47.464 24.6747C47.7086 25.2071 48.4911 25.5074 49.0291 25.2753ZM23.2059 36.4187L26.7028 34.9097C27.2408 34.6776 27.6238 33.8743 27.3792 33.3418L24.485 27.0412C24.2404 26.5088 23.3274 26.1584 22.7894 26.3906L19.2925 27.8996C18.7545 28.1317 18.5019 28.9851 18.7465 29.5175L21.6407 35.8182C21.8853 36.3506 22.6679 36.6509 23.2059 36.4187ZM31.8136 32.7042L35.3105 31.1952C35.8485 30.9631 36.2316 30.1598 35.987 29.6273L27.8749 11.9678C27.6303 11.4354 26.7173 11.085 26.1793 11.3172L22.6824 12.8262C22.1444 13.0584 21.8918 13.9117 22.1364 14.4442L30.2485 32.1037C30.4931 32.6361 31.2756 32.9364 31.8136 32.7042ZM57.7352 28.3236L19.0004 45.0388L6.60796 18.0615C6.28185 17.3516 5.23842 16.9512 4.52111 17.2607L1.65186 18.4989C0.844888 18.8471 0.543356 19.8279 0.869471 20.5378L14.5663 50.3549C15.3001 51.9522 17.1261 52.6529 18.74 51.9564L60.3441 34.003C61.0614 33.6935 61.4934 32.7628 61.1265 31.9641L59.822 29.1244C59.4959 28.4145 58.4525 28.0141 57.7352 28.3236Z" fill="#03598E"/>
</svg>
