<svg width="69" height="48" viewBox="0 0 69 48" fill="none" xmlns="http://www.w3.org/2000/svg">
<path d="M36.742 2.80168L29.0309 6.12925C28.3136 6.43879 27.8083 6.97586 27.5149 7.74046L22.3069 19.5577C21.5245 21.5967 22.5436 23.8152 24.4104 24.6046C26.1467 25.344 28.6411 24.693 29.5539 22.7041C29.5539 22.7041 29.5539 22.7041 29.6435 22.6654L33.7512 13.1306C34.1343 12.3273 35.0309 11.9403 35.8542 12.3294C36.6368 12.6297 37.0444 13.5171 36.6614 14.3204L35.3085 17.4562L53.2096 22.2785C53.5112 22.4673 53.8618 22.5287 54.1634 22.7176L46.2551 5.50179L39.2119 2.79916C38.4294 2.49887 37.549 2.45345 36.742 2.80168ZM49.2547 4.31367L58.386 24.1917C59.079 25.7003 60.9457 26.4897 62.5597 25.7933L68.2982 23.3169L57.8625 0.599181L49.2547 4.31367ZM62.6898 22.3345C61.8829 22.6827 60.9291 22.2436 60.603 21.5337C60.2361 20.735 60.5784 19.843 61.3854 19.4947C62.1027 19.1852 63.1054 19.4968 63.4722 20.2955C63.7984 21.0054 63.4072 22.0249 62.6898 22.3345ZM10.8725 47.9915L16.611 45.5151C18.1353 44.8574 18.9095 43.0346 18.1758 41.4373L9.0853 21.648L0.477556 25.3625L10.8725 47.9915ZM12.6082 40.5435C13.3255 40.234 14.3282 40.5456 14.6951 41.3443C15.0212 42.0542 14.63 43.0737 13.9127 43.3832C13.1057 43.7315 12.1519 43.2924 11.8258 42.5825C11.4589 41.7838 11.8012 40.8918 12.6082 40.5435ZM52.3458 25.3096L34.0534 20.3371L32.4641 23.8939C30.9156 27.5394 26.7584 29.0144 23.1553 27.4856C19.6419 25.9181 17.946 21.7586 19.4456 18.2405L23.7408 8.41211L16.209 11.6623C15.402 12.0105 14.8477 12.675 14.5544 13.4396L11.9138 20.3211L21.045 40.1991L22.659 39.5026L34.0714 43.2971C37.5196 44.2547 40.9023 42.2633 41.7743 39.0161L41.8639 38.9774L43.9997 39.6507C45.9643 40.1853 48.0347 39.0792 48.5481 37.1563L49.7378 32.4959L50.4796 32.7075C52.0937 33.1806 53.8054 32.2293 54.3107 30.5226L54.6285 29.1095C55.0441 27.4415 54.0495 25.744 52.3458 25.3096Z" fill="#03598E"/>
</svg>
