<svg width="68" height="60" viewBox="0 0 68 60" fill="none" xmlns="http://www.w3.org/2000/svg">
<path d="M46.1653 0.955035L3.10516 19.4778C0.683031 20.5197 -0.301675 23.2812 0.760985 25.5872L15.1478 56.8068C16.2513 59.2015 18.9935 60.2536 21.4156 59.2117L64.4757 40.689C66.8082 39.6857 67.9235 36.9742 66.8199 34.5795L52.4331 3.35998C51.3705 1.05399 48.4977 -0.0482792 46.1653 0.955035ZM62.5139 36.4318L42.3295 45.1143C42.2557 44.721 42.5827 45.4305 41.52 43.1245C40.2121 40.2864 36.3685 39.1767 33.0493 40.6044C32.1522 40.9903 31.7615 42.0086 29.4291 43.0119C27.0069 44.0538 26.052 43.6144 25.0652 44.0389C21.746 45.4667 20.1174 48.9303 21.4253 51.7685C22.4879 54.0745 22.0713 53.4035 22.3245 53.7197L19.4538 54.9545L7.68278 29.4113L50.7429 10.8885L62.5139 36.4318ZM44.1731 35.8194L54.2205 31.4974C54.5793 31.3431 54.8156 30.9227 54.6112 30.4792L53.9573 29.0601C53.7938 28.7054 53.2714 28.5049 52.9126 28.6593L42.8652 32.9813C42.4167 33.1742 42.3111 33.6447 42.4746 33.9995L43.1285 35.4186C43.3329 35.862 43.7246 36.0124 44.1731 35.8194ZM41.5574 30.1431L51.6047 25.8212C51.9636 25.6668 52.1998 25.2464 51.9954 24.8029L51.3415 23.3838C51.178 23.0291 50.6557 22.8287 50.2968 22.983L40.2495 27.305C39.8009 27.4979 39.6953 27.9685 39.8588 28.3232L40.5127 29.7423C40.7171 30.1858 41.1088 30.3361 41.5574 30.1431ZM38.9416 24.4668L48.9889 20.1449C49.3478 19.9905 49.584 19.5701 49.3796 19.1266L48.7257 17.7076C48.5622 17.3528 48.0399 17.1524 47.6811 17.3067L37.6337 21.6287C37.1851 21.8216 37.0795 22.2922 37.243 22.6469L37.8969 24.066C38.1013 24.5095 38.493 24.6598 38.9416 24.4668ZM27.7942 39.4642C30.934 38.1136 32.3912 34.5111 30.9198 31.3182C29.4893 28.214 25.7024 26.761 22.5626 28.1116C19.3331 29.5009 18.0066 33.1534 19.4371 36.2576C20.9085 39.4505 24.5647 40.8534 27.7942 39.4642Z" fill="#03598E"/>
</svg>
