<svg width="26" height="25" viewBox="0 0 26 25" fill="none" xmlns="http://www.w3.org/2000/svg">
<path d="M11.2375 14.4741L14.8771 12.5738L11.2375 10.6636V14.4741Z" fill="#E3E3E3"/>
<path d="M12.5757 0C5.68021 0 0.0930176 5.59275 0.0930176 12.4951V12.5049C0.0930176 19.3974 5.68021 24.9901 12.5658 24.9901H12.5757C19.4613 24.9901 25.0485 19.3974 25.0485 12.5049V12.4951C25.0485 5.59275 19.4613 0 12.5757 0ZM19.3236 15.8527C19.1564 16.5813 18.5563 17.1229 17.8383 17.2016C16.1365 17.3887 14.4053 17.3887 12.6839 17.3887C10.9625 17.3887 9.24107 17.3887 7.5295 17.2016C6.81142 17.1229 6.21139 16.5813 6.04417 15.8527C5.80809 14.809 5.80809 13.6668 5.80809 12.5935C5.80809 11.5203 5.80809 10.3781 6.05401 9.33438C6.22123 8.60575 6.82126 8.0642 7.53933 7.98542C9.24107 7.79834 10.9723 7.79834 12.6937 7.79834C14.4151 7.79834 16.1365 7.79834 17.8481 7.98542C18.5662 8.0642 19.1662 8.60575 19.3334 9.33438C19.5695 10.3781 19.5695 11.5203 19.5695 12.5935C19.5597 13.6766 19.5597 14.8188 19.3236 15.8527Z" fill="#E3E3E3"/>
</svg>
