<svg width="54" height="56" fill="none" xmlns="http://www.w3.org/2000/svg"><path d="M24.912 14.364L19.368 2.295 1.435 10.034C.18 10.575-.268 11.938.262 13.092l18.914 41.176c.571 1.242 1.875 1.743 3.13 1.201l30.128-13c1.165-.504 1.744-1.817 1.173-3.06l-13.37-29.106-12.195 5.262c-1.255.542-2.56.041-3.13-1.201zm15.456 15.872L35.674 42.47c-.383.803-1.37 1.229-2.242.967l-12.52-4.804c-1.305-.5-1.411-2.369-.156-2.91l5.918-2.554-3.261-7.1c-.326-.71-.025-1.69.782-2.039l2.87-1.238c.717-.31 1.76.091 2.086.8l3.262 7.1 5.828-2.515c1.255-.541 2.616.785 2.127 2.06zM37.367 5.693L24.585.788c-.612-.161-1.272-.195-1.81.037l-.538.232 5.218 11.359 11.477-4.953-.245-.532c-.244-.533-.758-.95-1.32-1.238z" fill="#03598E"/></svg>