<svg width="59" height="56" fill="none" xmlns="http://www.w3.org/2000/svg"><path d="M36.175 39.923c-.515-.416-1.004-.312-1.183-.235-.27.116-.677.398-.742.957l.026 1.69c-.138 1.334-1.793 1.94-2.773.98l-3.52-3.906.321 3.262c.198 1.828-.788 3.421-2.492 4.154l-1.077.463a1.59 1.59 0 01-2.09-.801c-.326-.71-.025-1.69.782-2.037l1.077-.463c.448-.193.684-.613.7-1.045l-.633-5.573c-.14-1.002.423-1.882 1.41-2.306.897-.386 1.95-.201 2.627.57l2.973 3.185c1.14-2.191 4.435-2.971 6.493-1.305.342.277.783.3 1.142.146l-3.352-7.273 6.292-16.203-1.92-4.169-12.201 5.248c-1.256.54-2.562.04-3.134-1.202L19.343 1.998 1.4 9.716c-1.256.54-1.704 1.901-1.172 3.054l18.964 41.153c.572 1.242 1.878 1.743 3.134 1.203L52.47 42.16c1.166-.502 1.745-1.813 1.172-3.055l-1.635-3.547-11.482 4.939c-1.525.656-3.15.398-4.35-.574zm2.507-33.28c-.245-.531-.76-.948-1.323-1.237L24.563.496C23.95.334 23.29.3 22.752.531l-.539.232 5.232 11.352 11.483-4.939-.246-.532zm.584 23.661l2.82 6.12 6.1-2.624 7.912-20.62-8.88-3.407-7.952 20.531zM57.07 3.624L52.89 2.02c-1.306-.501-2.74.116-3.23 1.39l-1.318 3.436 8.88 3.407 1.318-3.437c.489-1.273-.165-2.692-1.471-3.193z" fill="#03598E"/></svg>