<svg width="62" height="58" fill="none" xmlns="http://www.w3.org/2000/svg"><path d="M40.33 1.19L3.01 17.243a4.546 4.546 0 00-2.344 6.11l14.387 31.219a4.772 4.772 0 006.267 2.405l37.32-16.053a4.546 4.546 0 002.343-6.11L46.598 3.594C45.535 1.29 42.662.188 40.33 1.19zm15.81 35.708l-36.242 15.59c-.359.154-.62.054-.784-.3L5.218 22.032c-.123-.266-.066-.61.293-.763l36.242-15.59c.27-.116.661.034.784.3l13.896 30.156c.164.354-.024.647-.293.763zm-7.528-6.539c-.245-.532-1.029-.833-1.567-.601l-17.942 7.718c-.627.27-.83.995-.586 1.527l.981 2.129c.287.62.94.871 1.567.601l17.942-7.718c.538-.231.872-.906.586-1.527l-.98-2.129zm-3.924-8.514c-.245-.532-1.028-.833-1.566-.601L25.18 28.96c-.628.27-.831.996-.586 1.528l.98 2.128c.287.621.94.872 1.568.602L45.083 25.5c.539-.232.873-.907.586-1.527l-.98-2.13zm-3.923-8.515c-.245-.532-1.029-.832-1.567-.6l-17.942 7.717c-.628.27-.831.995-.586 1.527l.981 2.129c.286.62.94.871 1.567.601l17.942-7.718c.538-.231.872-.906.586-1.527l-.981-2.129zM18.649 24.12c-.777-1.686-2.997-2.538-4.701-1.805-1.794.772-2.535 2.897-1.758 4.583a3.61 3.61 0 004.7 1.803c1.705-.733 2.576-2.808 1.759-4.582zm3.923 8.514c-.776-1.686-2.996-2.537-4.7-1.804-1.795.772-2.535 2.897-1.759 4.582a3.61 3.61 0 004.701 1.804c1.705-.733 2.576-2.809 1.758-4.582zm3.924 8.514c-.776-1.685-2.996-2.537-4.7-1.804-1.795.772-2.535 2.897-1.759 4.582a3.61 3.61 0 004.701 1.804c1.704-.733 2.576-2.808 1.758-4.582z" fill="#03598E"/></svg>