<svg width="146" height="45" fill="none" xmlns="http://www.w3.org/2000/svg"><path fill-rule="evenodd" clip-rule="evenodd" d="M45.233 8.794h1.004v-2.59h1.611c1.308 0 2.22-.904 2.22-2.229 0-1.325-.912-2.198-2.22-2.198h-2.615v7.017zm1.004-3.463V2.62h1.46c.82 0 1.368.511 1.368 1.354 0 .844-.548 1.386-1.369 1.386l-1.46-.03zm4.652-.09c0 2.077 1.612 3.673 3.65 3.673 2.037 0 3.648-1.626 3.648-3.674 0-2.018-1.581-3.584-3.649-3.584-2.067 0-3.68 1.566-3.649 3.584zm1.004 0c0-1.537 1.155-2.681 2.615-2.681 1.46 0 2.615 1.174 2.615 2.68 0 1.566-1.156 2.77-2.615 2.77-1.43 0-2.615-1.204-2.615-2.77zm7.267 0c0 2.047 1.43 3.673 3.65 3.673 1.246 0 2.128-.512 2.736-1.114l-.547-.723a3.179 3.179 0 01-2.19.904c-1.642 0-2.645-1.295-2.645-2.77 0-1.477.973-2.681 2.615-2.681.73 0 1.52.3 2.037.753l.517-.723c-.669-.663-1.672-.934-2.585-.934-2.098.03-3.588 1.566-3.588 3.614zm7.025 0c0 2.047 1.429 3.673 3.648 3.673 1.247 0 2.13-.512 2.737-1.114l-.547-.723a3.179 3.179 0 01-2.19.904c-1.641 0-2.645-1.295-2.645-2.77 0-1.477.973-2.681 2.615-2.681.73 0 1.52.3 2.038.753l.516-.723c-.669-.663-1.672-.934-2.584-.934-2.098.03-3.588 1.566-3.588 3.614zm7.632 3.553h.973l3.162-4.548c.244-.391.578-1.024.578-1.024h.03s-.06.633-.06 1.024v4.548h.973V1.777H78.5l-3.102 4.547a47.099 47.099 0 00-.608 1.024h-.03s.06-.632.06-1.024V1.777h-1.003v7.017zm10.46-7.348c.791 0 1.49-.452 1.49-1.265V.03h-.76v.12c0 .451-.365.662-.73.662s-.699-.21-.699-.662V0h-.79v.15c0 .844.699 1.296 1.49 1.296zM81.39 8.794h.973l3.162-4.548c.243-.391.608-1.024.608-1.024h.03s-.06.633-.06 1.024v4.548h.973V1.777h-.973L82.94 6.324a47.099 47.099 0 00-.608 1.024h-.03s.06-.632.06-1.024V1.777h-1.003v7.017h.03zm7.115-3.554c0 2.048 1.43 3.674 3.65 3.674 1.246 0 2.128-.512 2.736-1.114l-.517-.723a3.179 3.179 0 01-2.19.904c-1.642 0-2.645-1.295-2.645-2.77 0-1.477.973-2.681 2.615-2.681.73 0 1.52.3 2.068.753l.517-.723c-.67-.663-1.673-.934-2.585-.934-2.128.03-3.649 1.566-3.649 3.614zm7.663 3.554h1.004V5.572h1.064l1.885 3.222h1.125l-2.22-3.674 2.068-3.343h-1.064l-1.794 2.951H97.17V1.777h-1.004v7.017zm6.173 0h.973l3.162-4.548c.244-.391.609-1.024.609-1.024h.03s-.061.633-.061 1.024v4.548h.973V1.777h-.973l-3.162 4.547c-.244.392-.608 1.024-.608 1.024h-.031s.061-.632.061-1.024V1.777h-1.004v7.017h.031zm10.43-7.348c.79 0 1.49-.452 1.49-1.265V.03h-.76v.12c0 .451-.365.662-.7.662-.365 0-.699-.21-.699-.662V0h-.821v.15c0 .844.73 1.296 1.49 1.296zm-2.859 7.348h.974l3.162-4.548c.243-.391.578-1.024.578-1.024h.03s-.061.633-.061 1.024v4.548h.973V1.777h-.973l-3.132 4.547c-.243.392-.608 1.024-.608 1.024h-.03s.061-.632.061-1.024V1.777h-1.004v7.017h.03zM45.233 20.75h1.004v-6.174h2.919v-.843h-3.923v7.017zm4.258-3.554c0 2.078 1.611 3.675 3.648 3.675 2.068 0 3.65-1.627 3.65-3.675 0-2.017-1.582-3.583-3.65-3.583-2.067 0-3.679 1.566-3.649 3.583zm1.003 0c0-1.536 1.156-2.68 2.615-2.68 1.46 0 2.615 1.175 2.615 2.68 0 1.566-1.155 2.771-2.615 2.771-1.43 0-2.615-1.204-2.615-2.77zm7.267 0c0 2.078 1.43 3.675 3.65 3.675 1.246 0 2.128-.512 2.736-1.115l-.517-.692a3.18 3.18 0 01-2.19.903c-1.641 0-2.645-1.295-2.645-2.77 0-1.476.973-2.68 2.615-2.68.73 0 1.52.3 2.038.752l.517-.753c-.67-.632-1.673-.934-2.585-.934-2.129.03-3.619 1.566-3.619 3.614zm7.45 3.223c.396.27.822.452 1.308.452.882 0 1.338-.693 1.612-1.416l2.25-5.752h-1.034l-1.307 3.554c-.153.421-.305.903-.305.903h-.03s-.183-.482-.395-.933l-1.734-3.524h-1.094l2.797 5.511c-.182.482-.395.783-.79.783-.335 0-.639-.21-.821-.361l-.457.783zm6.6-.512c.82-1.265 1.002-3.132 1.002-4.668v-.663h2.22v5.33H71.81zm-1.734 0v2.259h.912V20.78h4.957v1.386h.881v-2.26h-.79v-6.173H71.87v1.446c0 1.536-.122 3.373-1.125 4.728h-.67zm7.328.843h1.004l.699-2.018h2.676l.7 2.018h1.033l-2.554-7.017h-1.064l-2.494 7.017zm1.977-2.83l.79-2.23c.122-.36.274-.993.274-.993h.03s.152.632.274.994l.79 2.228h-2.158zm5.23 2.83h1.003v-2.59h1.612c1.307 0 2.22-.903 2.22-2.228 0-1.326-.913-2.199-2.22-2.199h-2.615v7.017zm1.003-3.463v-2.71h1.46c.821 0 1.368.511 1.368 1.355 0 .843-.547 1.385-1.368 1.385l-1.46-.03zm4.653-.09c0 2.078 1.429 3.674 3.649 3.674 1.246 0 2.128-.512 2.736-1.115l-.547-.692a3.18 3.18 0 01-2.19.903c-1.641 0-2.645-1.295-2.645-2.77 0-1.476.973-2.68 2.615-2.68.73 0 1.52.3 2.038.752l.517-.753c-.67-.632-1.673-.934-2.585-.934-2.098.03-3.588 1.566-3.588 3.614zm9.305 3.553h.973v-6.174h2.432v-.843H97.11v.843h2.432v6.174h.03zm4.531 0h2.554c1.247 0 2.28-.662 2.28-1.988 0-.782-.425-1.475-1.185-1.716v-.03c.547-.271.881-.813.881-1.506 0-1.144-.851-1.807-2.067-1.807h-2.494v7.047h.031zm1.003-4.066v-2.108h1.49c.669 0 1.064.422 1.064 1.024 0 .603-.395 1.054-1.034 1.054l-1.52.03zm0 3.223v-2.41h1.612c.729 0 1.216.483 1.216 1.205 0 .723-.456 1.205-1.216 1.205h-1.612zm5.261.843h4.318v-.843h-3.315v-2.259h2.554v-.843h-2.554v-2.199h3.132v-.843h-4.135v6.987zm5.686 0h1.003v-3.072h3.68v3.072h.973v-7.017h-.973v3.102h-3.68v-3.102h-1.003v7.017zm7.541 0h1.004v-3.072h3.679v3.072h.973v-7.017h-.973v3.102h-3.679v-3.102h-1.004v7.017zm13.167 0h.973v-7.017h-.973v7.017zm-5.626 0h2.494c1.247 0 2.098-.873 2.098-2.168 0-1.416-.912-2.199-2.159-2.199h-1.46v-2.65h-1.003v7.017h.03zm1.004-.843v-2.68h1.338c.79 0 1.277.542 1.277 1.355s-.487 1.325-1.277 1.325h-1.338zm10.369-6.505c.791 0 1.49-.452 1.49-1.265v-.15h-.791v.12c0 .452-.364.662-.729.662s-.7-.21-.7-.662v-.15h-.79v.15c.03.813.729 1.295 1.52 1.295zm-2.889 7.348h.973l3.163-4.547a21.97 21.97 0 00.578-1.024h.03s-.061.632-.061 1.024v4.547h.973v-7.017h-.973l-3.132 4.548a47.743 47.743 0 00-.608 1.024h-.03s.06-.633.06-1.024v-4.578h-1.003v7.047h.03zm-94.812 8.403c0 2.048 1.429 3.674 3.649 3.674 1.246 0 2.128-.512 2.736-1.114l-.547-.693a3.18 3.18 0 01-2.19.903c-1.641 0-2.645-1.295-2.645-2.77 0-1.476.973-2.68 2.615-2.68.73 0 1.52.3 2.038.752l.517-.753c-.67-.632-1.673-.933-2.585-.933-2.098 0-3.588 1.566-3.588 3.614zm7.024 0c0 2.078 1.611 3.674 3.649 3.674 2.037 0 3.649-1.626 3.649-3.674 0-2.018-1.581-3.584-3.65-3.584-2.067-.03-3.648 1.536-3.648 3.584zm1.003 0c0-1.536 1.156-2.68 2.615-2.68 1.46 0 2.616 1.174 2.616 2.68 0 1.566-1.156 2.77-2.616 2.77-1.429 0-2.615-1.204-2.615-2.77zm7.694 3.553h5.382v1.386h.882v-2.259h-.821v-6.174h-1.004v6.174h-3.466v-6.174h-1.004v7.047h.03zm7.632 0h.973l3.163-4.547c.243-.392.608-1.024.608-1.024h.03s-.06.632-.06 1.024v4.547h.972V25.66h-.973l-3.162 4.548a46.762 46.762 0 00-.608 1.024h-.03s.06-.633.06-1.024V25.63h-1.003v7.077h.03zm6.781 0h1.004l.699-2.017h2.676l.7 2.017h1.033L78.5 25.69h-1.064l-2.494 7.017zm1.977-2.83l.79-2.23c.122-.36.274-.993.274-.993h.03s.152.632.274.994l.79 2.228H76.92zm4.44 2.017v.904c1.945-.12 2.553-2.048 2.553-5.451v-.814h2.19v6.174h1.003V25.66H82.97v1.657c0 2.89-.426 4.396-1.612 4.577zm7.632.813h2.554c1.247 0 2.129-.873 2.129-2.168 0-1.416-.913-2.198-2.16-2.198h-1.52v-2.65h-1.003v7.016zm.973-.843v-2.68h1.368c.79 0 1.277.542 1.277 1.355s-.486 1.325-1.277 1.325h-1.368zm4.926.843h1.003v-3.102h3.68v3.072h.973V25.66h-.973v3.102h-3.68V25.66H94.89v7.047zm13.167 0h.973V25.66h-.973v7.047zm-5.596 0h2.494c1.247 0 2.098-.873 2.098-2.168 0-1.416-.912-2.198-2.159-2.198h-1.459v-2.65h-.974v7.016zm.974-.843v-2.68h1.338c.79 0 1.277.542 1.277 1.355s-.487 1.325-1.277 1.325h-1.338zm10.369-6.505c.79 0 1.49-.452 1.49-1.265v-.15h-.76v.12c0 .452-.365.663-.73.663s-.7-.211-.7-.663v-.15h-.79v.15c0 .813.73 1.295 1.49 1.295zm-2.859 7.348h.973l3.163-4.547a21.97 21.97 0 00.578-1.024h.03s-.061.632-.061 1.024v4.547h.973V25.66h-.973l-3.132 4.578a47.743 47.743 0 00-.608 1.024h-.03s.06-.633.06-1.024V25.66h-1.003v7.047h.03zM45.537 44.331c.396.271.821.452 1.308.452.882 0 1.338-.693 1.612-1.415l2.25-5.753h-1.034l-1.308 3.554c-.152.422-.304.904-.304.904h-.03s-.183-.482-.395-.934l-1.734-3.524h-1.094l2.797 5.512c-.182.481-.395.783-.79.783-.335 0-.639-.211-.822-.362l-.456.783zm6.204.332h1.003V41.56h3.68v3.072h.973v-7.018h-.974v3.102h-3.679v-3.102h-1.003v7.048zm7.54 0h.974l3.162-4.548c.244-.392.578-1.024.578-1.024h.03s-.06.633-.06 1.024v4.548h.973v-7.017h-.973l-3.163 4.547c-.243.392-.608 1.024-.608 1.024h-.03s.06-.633.06-1.024v-4.578h-.942v7.048zm7.572 0h2.555c1.247 0 2.28-.663 2.28-1.988 0-.783-.425-1.476-1.186-1.717v-.03c.548-.27.882-.813.882-1.506 0-1.144-.851-1.807-2.067-1.807h-2.494v7.048h.03zm1.004-4.066v-2.108h1.49c.669 0 1.064.421 1.064 1.024 0 .602-.395 1.054-1.034 1.054l-1.52.03zm0 3.192v-2.41h1.612c.73 0 1.216.483 1.216 1.206 0 .722-.456 1.204-1.216 1.204h-1.612zm5.26.874h4.319v-.844H74.12v-2.258h2.554v-.844H74.12V38.52h3.132v-.843h-4.135v6.987zm5.687 0h1.003v-2.59h1.612c1.308 0 2.22-.904 2.22-2.229 0-1.325-.912-2.199-2.22-2.199h-2.615v7.018zm1.003-3.464v-2.71h1.46c.821 0 1.368.512 1.368 1.355s-.547 1.385-1.368 1.385l-1.46-.03zm4.653-.09c0 2.048 1.429 3.674 3.649 3.674 1.247 0 2.128-.512 2.737-1.114l-.548-.693a3.179 3.179 0 01-2.19.904c-1.641 0-2.645-1.296-2.645-2.771 0-1.476.973-2.68 2.615-2.68.73 0 1.52.3 2.038.752l.517-.752c-.67-.663-1.673-.934-2.585-.934-2.098 0-3.588 1.566-3.588 3.614zm7.632 3.554h.973l3.163-4.548c.243-.392.608-1.024.608-1.024h.03s-.06.633-.06 1.024v4.548h.973v-7.017h-.973l-3.163 4.547c-.243.392-.608 1.024-.608 1.024h-.03s.06-.633.06-1.024v-4.578h-1.003v7.048h.03zm9.214 0h.973v-6.174h2.433v-.843h-5.87v.843h2.434v6.174h.03zm4.531 0h4.318v-.844h-3.315v-2.258h2.555v-.844h-2.555V38.52h3.132v-.843h-4.135v6.987zm7.328 0h.973v-6.174h2.433v-.843h-5.869v.843h2.433v6.174h.03zM4.06 20.66c-.516.783-.973 1.596-1.246 2.47-.274.903-.396 1.837-.456 2.77-.061 1.355 0 2.74.06 4.096.03.602.03 1.235.03 1.867 0 1.114.031 2.259.031 3.373 0 1.114 0 2.229.03 3.343v6.385H.17v-6.355c0-1.114-.031-2.228-.031-3.343 0-1.114 0-2.258-.03-3.373 0-.602 0-1.204-.031-1.777-.091-2.47-.243-5.3.517-7.68.365-1.114.882-2.108 1.52-3.071.7-1.024 1.49-1.777 2.342-2.68l-.03-.03c-.913-1.356-1.46-2.952-1.46-4.699 0-4.638 3.8-8.402 8.484-8.402 1.338 0 2.584.3 3.679.843a8.487 8.487 0 012.646-2.74c.03-.03.06-.03.09-.06.031-.031.062-.031.092-.061A8.65 8.65 0 0122.427.3c4.683 0 8.484 3.765 8.484 8.403a8.278 8.278 0 01-2.95 6.354l.183.18c1.338 1.296 2.524 2.38 3.558 3.946.638.964 1.185 1.958 1.52 3.072.76 2.38.608 5.21.517 7.68-.03.602-.03 1.204-.03 1.776 0 1.115-.031 2.26-.031 3.374 0 1.114 0 2.228-.03 3.343 0 .632 0 5.571-.03 6.203l-.031.362h-2.342l.03-.482c.031-.602.031-5.511.031-6.114 0-1.114.03-2.228.03-3.343 0-1.114 0-2.258.031-3.373 0-.602 0-1.234.03-1.867.061-1.355.122-2.74.061-4.096-.03-.933-.152-1.867-.456-2.77-.274-.904-.73-1.687-1.247-2.47-.942-1.415-2.037-2.41-3.253-3.554l-.548-.542a8.606 8.606 0 01-3.527.753 8.256 8.256 0 01-3.68-.843c-.334.542-.73 1.084-1.185 1.536 2.615.933 4.47 3.403 4.47 6.294a6.627 6.627 0 01-2.129 4.88c.639.662 1.247 1.354 1.794 2.198.152.21.304.451.426.692.03.03.03.06.06.09.426.723.791 1.476 1.035 2.29.03.09.06.15.06.24.274.934.335 1.717.365 2.68v.844l-.121 6.927H21.15c0-2.259.122-4.759.06-6.987-.03-1.627-.243-3.433-1.49-5.421 0-.03-.03-.03-.03-.06-.547-.844-1.186-1.536-1.855-2.199a6.744 6.744 0 01-2.615.512c-.79 0-1.55-.12-2.25-.392-.243.241-.456.482-.7.753a9.092 9.092 0 00-1.277 1.777c-1.003 1.837-1.185 3.494-1.246 5.03-.061 2.228.06 4.728.06 6.987h-2.37l-.122-6.927c-.03-1.145 0-1.988.243-2.982.274-1.144.7-2.138 1.278-3.162.152-.24.304-.512.486-.753.487-.723.973-1.325 1.52-1.897a6.798 6.798 0 01-2.371-5.15c0-1.445.486-2.8 1.277-3.915a8.441 8.441 0 01-3.74-1.777c-.7.723-1.4 1.446-1.947 2.259zm17.637-5.933c.243.03.487.03.7.03a6.286 6.286 0 003.405-1.024c1.612-1.084 2.707-2.921 2.707-5 0-3.342-2.737-6.053-6.112-6.053a6.031 6.031 0 00-3.254.934c-.03 0-.03.03-.06.03a5.914 5.914 0 00-1.977 2.078 8.292 8.292 0 012.797 6.234 8.23 8.23 0 01-.274 2.139 6.114 6.114 0 002.068.632zM11.45 5.903c3.375 0 6.112 2.71 6.112 6.053 0 2.59-1.642 4.789-3.953 5.662a6.14 6.14 0 00-.7.21 5.7 5.7 0 01-1.46.182c-3.375 0-6.111-2.71-6.111-6.054 0-3.343 2.736-6.053 6.112-6.053zm3.8 13.793c-2.462 0-4.47 1.988-4.47 4.427 0 2.44 2.008 4.427 4.47 4.427 2.464 0 4.47-1.987 4.47-4.427a4.456 4.456 0 00-4.47-4.427z" fill="#fff"/></svg>