<svg width="53" height="56" fill="none" xmlns="http://www.w3.org/2000/svg"><path d="M50.931 28.798L12.358 1.074C9.476-.98 5.218.744 4.912 4.277L.425 50.523c-.348 3.444 3.35 6.104 6.67 4.677l42.97-18.485c3.32-1.427 3.789-5.774.866-7.917zm-28.764 3.127c2.243-.965 4.985.087 6.007 2.305 1.063 2.306-.004 4.89-2.247 5.855-2.332 1.003-4.944 0-6.006-2.305-1.022-2.217-.086-4.852 2.246-5.855zm-10.69-12.936c-.377-.582-.084-1.346.544-1.616l5.652-2.431c.628-.27 1.412.03 1.608.69l4.93 12.332c.197.66-.088 1.207-.627 1.438l-4.395 1.891c-.538.232-1.15.07-1.526-.512l-6.187-11.792z" fill="#03598E"/></svg>