<svg width="58" height="60" fill="none" xmlns="http://www.w3.org/2000/svg"><path d="M52.322 31.813L38.625 1.996C38.095.842 36.661.292 35.495.795l-29.41 12.69A9.118 9.118 0 001.391 25.72l13.045 28.397c2.16 4.703 7.768 6.855 12.52 4.804l29.41-12.69c1.166-.504 1.745-1.817 1.174-3.06l-.652-1.42c-.285-.62-.93-1.087-1.54-1.248-1.102-1.227-2.895-5.131-3.058-6.656a2.357 2.357 0 00.032-2.034zm-37.905-7.674c-.122-.266-.065-.61.293-.765l19.01-8.202c.268-.117.66.034.782.3l.815 1.775c.163.355-.024.648-.293.764l-19.01 8.203c-.358.155-.619.055-.782-.3l-.815-1.775zm2.609 5.68c-.122-.267-.065-.61.293-.765l19.01-8.203c.268-.116.66.034.782.3l.815 1.775c.163.355-.025.649-.294.765l-19.008 8.203c-.359.154-.62.054-.783-.3l-.815-1.776zm32.876 12.396L24.348 53.242a3.172 3.172 0 01-4.174-1.602c-.693-1.508-.05-3.381 1.565-4.078l25.554-11.027c.554 1.675 1.737 4.248 2.609 5.68z" fill="#03598E"/></svg>