<svg width="62" height="53" fill="none" xmlns="http://www.w3.org/2000/svg"><path d="M40.421 28.99l3.497-1.51c.538-.231.921-1.035.677-1.567l-5.503-11.98c-.245-.533-1.158-.883-1.696-.65l-3.497 1.508c-.538.232-.79 1.086-.546 1.618l5.503 11.98c.245.533 1.027.833 1.565.6zm8.608-3.715l3.497-1.509c.538-.232.921-1.035.676-1.568L43.787 1.7c-.245-.532-1.158-.883-1.696-.65l-3.497 1.509c-.538.232-.79 1.085-.546 1.617l9.417 20.5c.245.532 1.027.832 1.565.6zM23.206 36.42l3.497-1.51c.538-.231.92-1.035.676-1.567l-2.894-6.3c-.245-.533-1.158-.884-1.696-.651L19.292 27.9c-.538.232-.79 1.085-.546 1.617l2.895 6.301c.244.533 1.027.833 1.565.6zm8.608-3.715l3.496-1.509c.538-.232.922-1.035.677-1.568l-8.112-17.66c-.245-.532-1.158-.882-1.696-.65l-3.497 1.51c-.538.231-.79 1.085-.546 1.617l8.113 17.66c.244.532 1.027.832 1.565.6zm25.921-4.38L19 45.039 6.608 18.06c-.326-.71-1.37-1.11-2.087-.8l-2.87 1.238c-.806.348-1.108 1.329-.782 2.039l13.697 29.817a3.172 3.172 0 004.174 1.601l41.604-17.953c.717-.31 1.15-1.24.782-2.039l-1.304-2.84c-.326-.71-1.37-1.11-2.087-.8z" fill="#03598E"/></svg>