<svg width="69" height="48" fill="none" xmlns="http://www.w3.org/2000/svg"><path d="M36.742 2.802l-7.711 3.327c-.717.31-1.223.847-1.516 1.611l-5.208 11.818c-.782 2.039.237 4.257 2.103 5.047 1.737.739 4.231.088 5.144-1.9l.09-.04 4.107-9.534c.383-.804 1.28-1.19 2.103-.802.783.3 1.19 1.188.807 1.991l-1.352 3.136 17.9 4.823c.302.188.653.25.954.439L46.255 5.502l-7.043-2.703c-.783-.3-1.663-.346-2.47.003zm12.513 1.512l9.131 19.878c.693 1.508 2.56 2.298 4.174 1.601l5.738-2.476L57.862.599l-8.607 3.715zm13.435 18.02c-.807.349-1.76-.09-2.087-.8a1.5 1.5 0 01.782-2.04c.718-.309 1.72.003 2.087.802.326.71-.065 1.729-.782 2.038zM10.873 47.992l5.738-2.477c1.524-.658 2.299-2.48 1.565-4.078l-9.09-19.789-8.608 3.715 10.395 22.629zm1.735-7.448c.717-.31 1.72.002 2.087.8.326.71-.065 1.73-.782 2.04-.807.347-1.761-.092-2.087-.801a1.5 1.5 0 01.782-2.04zM52.346 25.31l-18.293-4.973-1.589 3.557c-1.548 3.645-5.706 5.12-9.309 3.592-3.513-1.568-5.209-5.727-3.71-9.245l4.296-9.829-7.532 3.25c-.807.348-1.361 1.013-1.655 1.778l-2.64 6.881L21.045 40.2l1.614-.696 11.412 3.794c3.449.958 6.831-1.034 7.703-4.28l.09-.04 2.136.674c1.964.534 4.035-.572 4.548-2.495l1.19-4.66.742.212c1.614.473 3.325-.479 3.83-2.185l.319-1.413a3.131 3.131 0 00-2.283-3.8z" fill="#03598E"/></svg>