<svg width="68" height="60" fill="none" xmlns="http://www.w3.org/2000/svg"><path d="M46.165.955L3.105 19.478a4.546 4.546 0 00-2.344 6.11l14.387 31.219a4.772 4.772 0 006.268 2.405l43.06-18.523a4.546 4.546 0 002.344-6.11L52.433 3.36C51.37 1.054 48.498-.048 46.165.955zm16.349 35.477L42.33 45.114c-.074-.393.253.317-.81-1.99-1.308-2.838-5.152-3.947-8.47-2.52-.898.386-1.288 1.405-3.62 2.408-2.423 1.042-3.378.602-4.365 1.027-3.319 1.428-4.948 4.891-3.64 7.73 1.063 2.306.646 1.635.9 1.95l-2.871 1.236L7.683 29.41l43.06-18.523 11.77 25.544zm-18.34-.613l10.047-4.322c.358-.154.595-.574.39-1.018l-.654-1.419c-.163-.355-.686-.555-1.044-.4l-10.048 4.32c-.448.193-.554.664-.39 1.018l.654 1.42c.204.443.596.593 1.044.4zm-2.617-5.676l10.048-4.322c.359-.154.595-.575.39-1.018l-.653-1.42c-.164-.354-.686-.554-1.045-.4L40.25 27.305c-.45.193-.555.663-.391 1.018l.654 1.42c.204.443.596.593 1.044.4zm-2.615-5.676l10.047-4.322c.359-.154.595-.575.39-1.018l-.653-1.42c-.164-.354-.686-.555-1.045-.4l-10.047 4.322c-.449.193-.554.663-.391 1.018l.654 1.419c.204.444.596.594 1.045.4zM27.794 39.464c3.14-1.35 4.597-4.953 3.126-8.146-1.43-3.104-5.218-4.557-8.357-3.206-3.23 1.389-4.556 5.041-3.126 8.146a6.362 6.362 0 008.357 3.206z" fill="#03598E"/></svg>