<svg width="26" height="25" fill="none" xmlns="http://www.w3.org/2000/svg"><path d="M11.238 14.474l3.64-1.9-3.64-1.91v3.81z" fill="#E3E3E3"/><path d="M12.576 0C5.68 0 .093 5.593.093 12.495v.01c0 6.892 5.587 12.485 12.473 12.485h.01c6.885 0 12.473-5.593 12.473-12.485v-.01C25.049 5.593 19.46 0 12.575 0zm6.748 15.853a1.736 1.736 0 01-1.486 1.349c-1.701.187-3.433.187-5.154.187s-3.443 0-5.154-.187a1.736 1.736 0 01-1.486-1.35c-.236-1.043-.236-2.185-.236-3.258 0-1.074 0-2.216.246-3.26a1.736 1.736 0 011.485-1.349c1.702-.187 3.433-.187 5.155-.187 1.721 0 3.443 0 5.154.187.718.08 1.318.62 1.485 1.35.237 1.043.237 2.185.237 3.258-.01 1.084-.01 2.226-.246 3.26z" fill="#E3E3E3"/></svg>