<svg width="57" height="47" fill="none" xmlns="http://www.w3.org/2000/svg"><path d="M27.971 26.907l8.119-3.614c3.836-1.708 6.044-6.112 4.515-10.028-.04-.09-.03-.307-.11-.486-.913-2.052-2.6-3.439-4.623-4.141.098-1.22-.15-2.499-.667-3.659l-.317-.713C32.862.677 28.24-.58 24.494 1.089l-6.691 2.98c-.803.357-1.11 1.349-.792 2.062l8.897 19.984a1.543 1.543 0 002.063.792zM23.596 7.476l3.568-1.59c1.16-.516 2.578.029 3.095 1.189.556 1.249-.028 2.578-1.188 3.094l-3.569 1.589-1.906-4.282zm3.813 8.564l4.996-2.224c1.16-.517 2.578.028 3.094 1.188.556 1.249-.028 2.578-1.188 3.094l-4.995 2.224-1.907-4.282zm-19.13-5.272c-.963-.961-2.43-1.377-3.68-.82l-2.23.992C1.12 11.496.447 12.865.517 14.223l2.394 21.704.199.446c.317.714 1.22 1.06 2.023.703l2.14-.954c.715-.318 1.091-.913.991-1.617l-.399-3.777 7.762-3.456 2.54 2.824c.456.546 1.15.664 1.864.346l2.23-.993c.714-.318 1.15-1.26.793-2.063-.04-.089-.17-.138-.248-.317L8.278 10.768zM7.197 24.184l-.65-6.98 4.664 5.193-4.014 1.787zm48.283-7.28l-5.802-2.227a1.617 1.617 0 00-1.269.03c-.357.16-.634.497-.783.884L40.153 35.06l-7.18-2.683c-.387-.148-.824-.168-1.18-.009-.447.199-.724.536-.783.883l-2.317 5.842c-.148.387-.079.783.08 1.14.199.446.447.763.834.912l14.44 5.543c.387.148.824.168 1.27-.03.356-.16.634-.497.782-.884l10.295-26.818a1.617 1.617 0 00-.03-1.269c-.16-.357-.497-.634-.884-.783z" fill="#03598E"/></svg>