<svg width="61" height="61" fill="none" xmlns="http://www.w3.org/2000/svg"><path d="M43.962 11.925L40.61 4.652c-.457-.76-1.054-1.353-1.837-1.654L32.897.744c-.784-.301-1.624-.258-2.472 0l-21.71 9.339c-1.614.694-2.257 2.565-1.562 4.073l18.31 39.734a3.181 3.181 0 004.178 1.603l28.707-12.348c1.525-.656 2.299-2.477 1.563-4.073l-11.77-25.544c-.696-1.507-2.654-2.259-4.18-1.603zm-6.108 31.533c.368.799-.063 1.728-.78 2.037l-2.872 1.235a1.59 1.59 0 01-2.089-.802l-1.308-2.838c-.327-.71-.026-1.69.782-2.037l2.87-1.234c.718-.31 1.763.092 2.09.801l1.308 2.838zm-5.231-11.352c.368.798-.064 1.727-.781 2.036l-2.871 1.235a1.59 1.59 0 01-2.09-.802l-1.307-2.838c-.327-.71-.026-1.689.781-2.036l2.87-1.235c.718-.309 1.763.092 2.09.802l1.308 2.838zm16.714 6.413c.368.798-.064 1.728-.781 2.036l-2.87 1.235a1.59 1.59 0 01-2.09-.801l-1.308-2.838c-.327-.71-.026-1.69.781-2.037l2.871-1.235c.718-.309 1.762.092 2.09.802l1.307 2.838zm-5.231-11.353c.367.799-.064 1.728-.782 2.037l-2.87 1.235a1.59 1.59 0 01-2.09-.802l-1.308-2.838c-.327-.71-.026-1.69.782-2.037l2.87-1.234c.718-.31 1.763.092 2.09.801l1.308 2.838zm-4.578-9.933l-20.095 8.644-5.231-11.353L28.555 8.35l1.962 4.257a1.59 1.59 0 002.09.802l4.305-1.852 2.616 5.676zM5.335 25.14l-2.87 1.235C.848 27.069.206 28.94.9 30.448l13.08 28.381a3.181 3.181 0 004.178 1.603l2.87-1.234c1.526-.656 2.299-2.477 1.563-4.073L9.513 26.743c-.694-1.508-2.653-2.26-4.178-1.603z" fill="#03598E"/></svg>